<svg width="101" height="88" viewBox="0 0 101 88" fill="none" xmlns="http://www.w3.org/2000/svg">
<g clip-path="url(#clip0_3_240)">
<path d="M75.6621 17.719C75.3546 17.1762 75.0245 16.6482 74.6795 16.1426C71.2366 16.0311 70.569 18.0387 68.2362 22.0688C74.3194 33.579 69.0013 49.7142 55.2671 52.2275C53.5419 55.4768 51.9442 58.0272 49.7389 60.6148C73.7494 61.5665 86.1634 37.6612 75.6696 17.719H75.6621Z" fill="#843667"/>
<path d="M33.0493 43.1932C26.3435 31.5045 32.1267 14.6555 46.3785 12.4918C47.9762 9.22011 49.4914 6.59536 51.2316 4.2011C50.9991 4.19367 50.7665 4.19367 50.534 4.19367C27.5211 3.77727 15.3546 26.4706 24.8133 46.0634C28.5413 47.3646 31.1291 46.5244 33.0493 43.1932Z" fill="#843667"/>
<path d="M60.1877 23.0503C63.1806 15.808 67.5461 7.79248 76.3522 9.45061V0.498183C61.8904 -2.55784 54.982 8.92269 50.2565 20.7229L42.4855 39.6093C39.2601 48.1007 34.1145 55.3578 24.6108 53.1272V62.0796C40.0702 65.552 47.2111 54.9935 52.4242 41.9441L60.1802 23.0577L60.1877 23.0503Z" fill="#843667"/>
<path d="M0.817601 79.0178C0.270033 78.0735 0 76.9879 0 75.7685C0 74.5491 0.270033 73.4486 0.817601 72.5117C1.36517 71.5748 2.12276 70.8313 3.09038 70.2959C4.058 69.7605 5.18314 69.4929 6.4508 69.4929C7.71846 69.4929 8.83609 69.7605 9.81121 70.2959C10.7788 70.8313 11.5439 71.5674 12.084 72.5117C12.6241 73.456 12.9016 74.5342 12.9016 75.7685C12.9016 77.0028 12.6316 78.0735 12.084 79.0178C11.5364 79.9621 10.7788 80.7057 9.81121 81.2411C8.84359 81.7764 7.71846 82.0441 6.4508 82.0441C5.18314 82.0441 4.0655 81.7764 3.09038 81.2411C2.12276 80.7057 1.35767 79.9621 0.817601 79.0178ZM9.98374 77.8802C10.3288 77.2705 10.5013 76.5641 10.5013 75.7685C10.5013 74.9729 10.3288 74.2591 9.98374 73.6493C9.63869 73.0471 9.16613 72.5712 8.56606 72.2217C7.95849 71.8797 7.2609 71.7012 6.4583 71.7012C5.6557 71.7012 4.96561 71.8722 4.35804 72.2217C3.75046 72.5637 3.27041 73.0396 2.92536 73.6493C2.58032 74.2516 2.4078 74.958 2.4078 75.7685C2.4078 76.579 2.58032 77.263 2.92536 77.8802C3.27041 78.4899 3.74296 78.9658 4.35804 79.3152C4.96561 79.6573 5.6707 79.8357 6.4583 79.8357C7.2459 79.8357 7.96599 79.6647 8.56606 79.3152C9.17364 78.9732 9.64619 78.4899 9.98374 77.8802Z" fill="#022238"/>
<path d="M16.8471 78.5345C16.8471 78.9584 16.9446 79.293 17.1471 79.516C17.3421 79.7465 17.6272 79.8581 17.9872 79.8581C18.3473 79.8581 18.6248 79.7465 18.8273 79.516C19.0224 79.2855 19.1274 78.9584 19.1274 78.5345V73.6047H21.3926V78.4973C21.3926 79.6276 21.1001 80.4975 20.515 81.1072C19.93 81.7169 19.0899 82.0218 17.9947 82.0218C16.8996 82.0218 16.0595 81.7169 15.4744 81.1072C14.8893 80.4975 14.5968 79.6276 14.5968 78.4973V73.6047H16.8621V78.5345H16.8471Z" fill="#022238"/>
<path d="M23.2602 73.6047H25.458V74.5565C25.8855 73.8575 26.7106 73.5006 27.9183 73.5006H28.0083V75.7313H27.8658C27.2732 75.7313 26.7706 75.8131 26.3581 75.9767C25.9455 76.1403 25.668 76.3633 25.533 76.6533V81.7393H23.2677V73.6122L23.2602 73.6047Z" fill="#022238"/>
<path d="M32.8915 73.865C33.3116 72.8389 33.7391 72.021 34.1742 71.4187C34.6092 70.8164 35.0893 70.3777 35.6219 70.11C36.1544 69.8423 36.762 69.7159 37.4596 69.7159C37.8046 69.7159 38.0897 69.7457 38.2997 69.8052V71.9689C38.2547 71.954 38.1947 71.9466 38.1197 71.9466C38.0447 71.9466 37.9696 71.9392 37.9021 71.9392C37.3321 71.9392 36.8445 72.1325 36.447 72.5117C36.0494 72.8909 35.6519 73.5452 35.2693 74.4673L33.9266 77.7315C33.5066 78.7427 33.0865 79.5532 32.6515 80.148C32.2239 80.7503 31.7439 81.1741 31.2188 81.4344C30.6937 81.6946 30.0712 81.821 29.3511 81.821C29.1561 81.821 28.961 81.8062 28.7735 81.7839C28.586 81.7616 28.4285 81.7318 28.2859 81.6946V79.5309C28.451 79.5755 28.6535 79.5978 28.8935 79.5978C29.4861 79.5978 29.9887 79.4119 30.3937 79.0327C30.7988 78.6609 31.1813 78.0215 31.5414 77.1218L32.884 73.8575L32.8915 73.865Z" fill="#022238"/>
<path d="M41.9076 81.7318H39.6423V75.5454H38.5096V73.6122H39.6423V71.902L41.7725 70.8164H41.9151V73.6196H43.1902V75.5529H41.9151V81.7392L41.9076 81.7318Z" fill="#022238"/>
<path d="M48.3733 82.0069C47.5107 82.0069 46.7456 81.821 46.0705 81.4418C45.3954 81.07 44.8629 80.5495 44.4728 79.8952C44.0828 79.2409 43.8878 78.4973 43.8878 77.6645C43.8878 76.8318 44.0828 76.0808 44.4728 75.4264C44.8629 74.7721 45.3954 74.2591 46.0705 73.8873C46.7456 73.5155 47.5107 73.3222 48.3733 73.3222C49.2359 73.3222 50.001 73.5081 50.6761 73.8873C51.3512 74.2591 51.8837 74.7721 52.2738 75.4264C52.6638 76.0808 52.8589 76.8243 52.8589 77.6645C52.8589 78.5048 52.6638 79.2409 52.2738 79.8952C51.8837 80.5495 51.3512 81.07 50.6761 81.4418C50.001 81.8136 49.2359 82.0069 48.3733 82.0069ZM49.926 76.1105C49.506 75.6941 48.9884 75.4859 48.3733 75.4859C47.7582 75.4859 47.2407 75.6941 46.8206 76.1105C46.4006 76.5269 46.1905 77.0474 46.1905 77.6645C46.1905 78.2817 46.4006 78.8022 46.8206 79.2186C47.2407 79.635 47.7582 79.8432 48.3733 79.8432C48.9884 79.8432 49.506 79.635 49.926 79.2186C50.3461 78.8022 50.5561 78.2817 50.5561 77.6645C50.5561 77.0474 50.3461 76.5269 49.926 76.1105Z" fill="#022238"/>
<path d="M54.3367 73.6047H56.5344V74.5565C56.962 73.8575 57.7871 73.5006 58.9947 73.5006H59.0848V75.7313H58.9422C58.3497 75.7313 57.8471 75.8131 57.4346 75.9767C57.022 76.1403 56.7445 76.3633 56.6095 76.6533V81.7393H54.3442V73.6122L54.3367 73.6047Z" fill="#022238"/>
<path d="M64.9729 82.0069C63.9303 82.0069 63.0227 81.8285 62.2501 81.4641C61.4775 81.0998 60.8924 80.5867 60.4798 79.9175C60.0673 79.2483 59.8573 78.4527 59.8573 77.5307C59.8573 76.7128 60.0373 75.9916 60.3898 75.3595C60.7424 74.7349 61.2299 74.2368 61.8525 73.8724C62.4751 73.5081 63.1877 73.3296 63.9903 73.3296C64.7104 73.3296 65.3554 73.4932 65.9255 73.8129C66.4956 74.1327 66.9456 74.5788 67.2682 75.1439C67.5907 75.709 67.7557 76.3485 67.7557 77.0623C67.7557 77.211 67.7557 77.382 67.7482 77.5753C67.7482 77.7687 67.7257 77.9025 67.7032 77.9843L62.2951 78.7948C62.6776 79.6127 63.5852 80.0216 65.0179 80.0216C65.3554 80.0216 65.7155 79.9919 66.098 79.925C66.4806 79.8655 66.8106 79.7763 67.0732 79.6722V81.6575C66.8856 81.7467 66.5781 81.8285 66.158 81.9028C65.7305 81.9698 65.3329 82.0069 64.9654 82.0069H64.9729ZM63.9753 75.3149C63.4652 75.3149 63.0452 75.4711 62.7226 75.7759C62.4001 76.0808 62.1976 76.4897 62.13 77.0102L65.4755 76.4897C65.408 76.1328 65.2429 75.8503 64.9804 75.6346C64.7179 75.419 64.3878 75.3149 63.9753 75.3149Z" fill="#022238"/>
<path d="M69.0235 81.5087C68.746 81.2336 68.6035 80.8916 68.6035 80.4901C68.6035 80.0886 68.746 79.7465 69.0235 79.4714C69.301 79.1963 69.6536 79.055 70.0661 79.055C70.4787 79.055 70.8312 79.1963 71.1088 79.4714C71.3863 79.7465 71.5288 80.0886 71.5288 80.4901C71.5288 80.8916 71.3863 81.2336 71.1088 81.5087C70.8312 81.7839 70.4787 81.9251 70.0661 81.9251C69.6536 81.9251 69.301 81.7839 69.0235 81.5087Z" fill="#022238"/>
<path d="M78.3473 75.7536C78.0548 75.6867 77.7547 75.6495 77.4397 75.6495C76.6596 75.6495 76.037 75.828 75.572 76.1923C75.1069 76.5567 74.8744 77.04 74.8744 77.6348C74.8744 78.2668 75.0994 78.7725 75.5495 79.1368C75.9995 79.5086 76.6071 79.687 77.3722 79.687C77.7697 79.687 78.1073 79.6499 78.3848 79.5681V81.7095C78.2348 81.7541 78.0473 81.7913 77.8297 81.8136C77.6122 81.8359 77.3947 81.8508 77.1847 81.8508C76.2546 81.8508 75.4369 81.6723 74.7319 81.3229C74.0268 80.9734 73.4792 80.4752 73.0892 79.8432C72.6991 79.2112 72.5041 78.475 72.5041 77.6274C72.5041 76.7797 72.6991 76.0733 73.0967 75.4488C73.4942 74.8242 74.0418 74.3409 74.7469 73.9988C75.452 73.6568 76.2696 73.4783 77.2147 73.4783C77.4097 73.4783 77.6122 73.4932 77.8147 73.5155C78.0173 73.5378 78.1973 73.5676 78.3473 73.6047V75.7462V75.7536Z" fill="#022238"/>
<path d="M83.8753 82.0069C83.0127 82.0069 82.2476 81.821 81.5725 81.4418C80.8974 81.07 80.3648 80.5495 79.9748 79.8952C79.5847 79.2409 79.3897 78.4973 79.3897 77.6645C79.3897 76.8318 79.5847 76.0808 79.9748 75.4264C80.3648 74.7721 80.8974 74.2591 81.5725 73.8873C82.2476 73.5155 83.0127 73.3222 83.8753 73.3222C84.7379 73.3222 85.503 73.5081 86.1781 73.8873C86.8531 74.2591 87.3857 74.7721 87.7757 75.4264C88.1658 76.0808 88.3608 76.8243 88.3608 77.6645C88.3608 78.5048 88.1658 79.2409 87.7757 79.8952C87.3857 80.5495 86.8531 81.07 86.1781 81.4418C85.503 81.8136 84.7379 82.0069 83.8753 82.0069ZM85.428 76.1105C85.0079 75.6941 84.4903 75.4859 83.8753 75.4859C83.2602 75.4859 82.7426 75.6941 82.3226 76.1105C81.9025 76.5269 81.6925 77.0474 81.6925 77.6645C81.6925 78.2817 81.9025 78.8022 82.3226 79.2186C82.7426 79.635 83.2602 79.8432 83.8753 79.8432C84.4903 79.8432 85.0079 79.635 85.428 79.2186C85.848 78.8022 86.058 78.2817 86.058 77.6645C86.058 77.0474 85.848 76.5269 85.428 76.1105Z" fill="#022238"/>
<path d="M89.846 73.6047H92.0062V74.2962C92.2163 73.9988 92.4938 73.7609 92.8539 73.5899C93.2064 73.4188 93.5889 73.3296 93.994 73.3296C94.9466 73.3296 95.6517 73.6791 96.1017 74.3855C96.6793 73.6791 97.4594 73.3296 98.442 73.3296C99.2296 73.3296 99.8597 73.5824 100.317 74.0806C100.775 74.5788 101.007 75.2629 101.007 76.1105V81.7318H98.7421V76.6682C98.7421 75.8503 98.382 75.4413 97.6619 75.4413C97.1594 75.4413 96.7993 75.6495 96.5668 76.0659V81.7393H94.3015V76.6756C94.3015 75.8577 93.9415 75.4488 93.2214 75.4488C92.9739 75.4488 92.7563 75.5082 92.5463 75.6198C92.3438 75.7387 92.2013 75.8875 92.1188 76.0659V81.7393H89.8535V73.6122L89.846 73.6047Z" fill="#022238"/>
<path d="M0.607666 83.851H1.11773V85.8363L2.91045 83.851H3.54803L1.7028 85.8511L3.58553 87.8959H2.92545L1.11773 85.9106V87.8959H0.607666V83.851Z" fill="#022238"/>
<path d="M4.75555 83.851H5.26562V86.4757C5.26562 86.8103 5.34813 87.0706 5.50565 87.2416C5.66317 87.4126 5.88819 87.5018 6.17323 87.5018C6.45826 87.5018 6.69079 87.4126 6.84081 87.2416C6.99833 87.0706 7.07334 86.8103 7.07334 86.4757V83.851H7.5834V86.5278C7.5834 87.0036 7.46339 87.3605 7.22336 87.6208C6.98333 87.8736 6.63079 88 6.17323 88C5.71567 88 5.37063 87.8736 5.1231 87.6208C4.87557 87.368 4.75555 87.0036 4.75555 86.5278V83.851Z" fill="#022238"/>
<path d="M11.0116 83.851H11.5217V87.8959H11.0116V83.851Z" fill="#022238"/>
<path d="M13.1417 83.851H13.6518V87.8959H13.1417V83.851Z" fill="#022238"/>
<path d="M15.2795 83.851H16.4422C16.8622 83.851 17.1848 83.9402 17.4098 84.1186C17.6348 84.2971 17.7473 84.5499 17.7473 84.8771C17.7473 85.063 17.7023 85.2191 17.6198 85.3604C17.5373 85.4942 17.4098 85.5983 17.2373 85.6727C17.5523 85.7173 17.7924 85.8363 17.9574 86.0147C18.1224 86.1932 18.2049 86.4311 18.2049 86.7211C18.2049 87.1003 18.0774 87.3903 17.8224 87.591C17.5673 87.7918 17.1998 87.8959 16.7347 87.8959H15.2795V83.851ZM16.4872 85.5314C16.7197 85.5314 16.8997 85.4793 17.0348 85.3752C17.1623 85.2711 17.2298 85.1224 17.2298 84.9366C17.2298 84.5276 16.9597 84.3194 16.4122 84.3194H15.7896V85.5314H16.4872ZM16.6897 87.4275C17.3498 87.4275 17.6798 87.1821 17.6798 86.6988C17.6798 86.4683 17.5973 86.2898 17.4323 86.1709C17.2673 86.0519 17.0348 85.985 16.7347 85.985H15.7896V87.4275H16.6897Z" fill="#022238"/>
<path d="M20.9652 86.5947C20.8302 86.9293 20.6952 87.1895 20.5602 87.3828C20.4252 87.5762 20.2677 87.7175 20.1026 87.7992C19.9301 87.881 19.7351 87.9256 19.5026 87.9256C19.3901 87.9256 19.3 87.9182 19.2175 87.8959V87.42C19.2625 87.4349 19.33 87.4349 19.4201 87.4349C19.6526 87.4349 19.8476 87.3605 19.9901 87.2193C20.1401 87.078 20.2902 86.8252 20.4327 86.4683L20.9877 85.1373C21.1228 84.8101 21.2578 84.5499 21.3853 84.3566C21.5203 84.1632 21.6628 84.0294 21.8204 83.9476C21.9779 83.8658 22.1579 83.8212 22.3679 83.8212C22.4129 83.8212 22.4579 83.8212 22.5029 83.8212C22.5479 83.8212 22.5779 83.8286 22.6004 83.8361V84.312C22.5554 84.3045 22.5029 84.2971 22.4504 84.2971C22.2554 84.2971 22.0829 84.3714 21.9404 84.5127C21.7978 84.654 21.6553 84.8994 21.5128 85.234L20.9652 86.5724V86.5947Z" fill="#022238"/>
<path d="M23.688 86.9739C23.508 86.6542 23.4105 86.2898 23.4105 85.8734C23.4105 85.457 23.5005 85.0927 23.688 84.773C23.868 84.4532 24.1231 84.2079 24.4456 84.022C24.7681 83.8435 25.1432 83.7469 25.5632 83.7469C25.9833 83.7469 26.3583 83.8361 26.6809 84.022C27.0034 84.2004 27.2584 84.4532 27.4385 84.773C27.6185 85.0927 27.716 85.457 27.716 85.8734C27.716 86.2898 27.626 86.6542 27.4385 86.9739C27.2584 87.2936 27.0034 87.539 26.6809 87.7249C26.3583 87.9033 25.9833 88 25.5632 88C25.1432 88 24.7681 87.9108 24.4456 87.7249C24.1231 87.5464 23.868 87.2936 23.688 86.9739ZM26.9884 86.7285C27.1234 86.4831 27.1984 86.2006 27.1984 85.8734C27.1984 85.5463 27.1309 85.2637 26.9884 85.0183C26.8534 84.773 26.6584 84.5796 26.4183 84.4458C26.1783 84.312 25.8933 84.2376 25.5707 84.2376C25.2482 84.2376 24.9782 84.3045 24.7306 84.4458C24.4831 84.5871 24.2956 84.773 24.1606 85.0183C24.0255 85.2637 23.9505 85.5463 23.9505 85.8734C23.9505 86.2006 24.018 86.4831 24.1606 86.7285C24.2956 86.9739 24.4906 87.1672 24.7306 87.3011C24.9782 87.4349 25.2557 87.5093 25.5707 87.5093C25.8858 87.5093 26.1708 87.4423 26.4183 87.3011C26.6659 87.1672 26.8534 86.9739 26.9884 86.7285Z" fill="#022238"/>
<path d="M31.0615 86.9739C30.8814 86.6542 30.7839 86.2898 30.7839 85.8734C30.7839 85.457 30.8739 85.0927 31.0615 84.773C31.2415 84.4532 31.4965 84.2079 31.8191 84.022C32.1416 83.8435 32.5166 83.7469 32.9367 83.7469C33.3568 83.7469 33.7318 83.8361 34.0543 84.022C34.3769 84.2004 34.6319 84.4532 34.8119 84.773C34.992 85.0927 35.0895 85.457 35.0895 85.8734C35.0895 86.2898 34.9995 86.6542 34.8119 86.9739C34.6319 87.2936 34.3769 87.539 34.0543 87.7249C33.7318 87.9033 33.3568 88 32.9367 88C32.5166 88 32.1416 87.9108 31.8191 87.7249C31.4965 87.5464 31.2415 87.2936 31.0615 86.9739ZM34.3619 86.7285C34.4969 86.4831 34.5719 86.2006 34.5719 85.8734C34.5719 85.5463 34.5044 85.2637 34.3619 85.0183C34.2269 84.773 34.0318 84.5796 33.7918 84.4458C33.5518 84.312 33.2667 84.2376 32.9442 84.2376C32.6217 84.2376 32.3516 84.3045 32.1041 84.4458C31.8566 84.5871 31.669 84.773 31.534 85.0183C31.399 85.2637 31.324 85.5463 31.324 85.8734C31.324 86.2006 31.3915 86.4831 31.534 86.7285C31.669 86.9739 31.8641 87.1672 32.1041 87.3011C32.3516 87.4349 32.6292 87.5093 32.9442 87.5093C33.2592 87.5093 33.5443 87.4423 33.7918 87.3011C34.0393 87.1672 34.2269 86.9739 34.3619 86.7285Z" fill="#022238"/>
<path d="M36.5222 83.7915H36.5672L38.885 85.6652V83.851H39.3951V87.8959H38.885V86.2749L37.0248 84.7655V87.8885H36.5147V83.7766L36.5222 83.7915Z" fill="#022238"/>
<path d="M41.0226 83.851H41.5326V87.42H43.5654V87.8959H41.0226V83.851Z" fill="#022238"/>
<path d="M44.8408 83.851H45.3509V87.8959H44.8408V83.851Z" fill="#022238"/>
<path d="M46.9785 83.7915H47.0235L49.3413 85.6652V83.851H49.8514V87.8959H49.3413V86.2749L47.4811 84.7655V87.8885H46.971V83.7766L46.9785 83.7915Z" fill="#022238"/>
<path d="M51.4789 83.851H53.5716V84.3268H51.9889V85.985H53.8192V86.4608H51.9889V87.42H54.1792V87.8959H51.4864V83.851H51.4789Z" fill="#022238"/>
<path d="M58.9423 83.784H59.0023L61.0276 87.8959H60.4575L60.0599 87.0483H57.8922L57.4796 87.8959H56.9171L58.9423 83.784ZM59.8274 86.5947L58.9648 84.7804L58.1097 86.5947H59.8274Z" fill="#022238"/>
<path d="M62.2204 83.851H62.7305V87.42H64.7632V87.8959H62.2204V83.851Z" fill="#022238"/>
<path d="M67.7185 83.784H67.7785L69.8038 87.8959H69.2337L68.8362 87.0483H66.6684L66.2558 87.8959H65.6933L67.7185 83.784ZM68.6036 86.5947L67.741 84.7804L66.8859 86.5947H68.6036Z" fill="#022238"/>
<path d="M72.6692 83.784H72.7292L74.7545 87.8959H74.1844L73.7868 87.0483H71.6191L71.2065 87.8959H70.644L72.6692 83.784ZM73.5543 86.5947L72.6917 84.7804L71.8366 86.5947H73.5543Z" fill="#022238"/>
<path d="M75.947 83.851H77.1096C77.5297 83.851 77.8522 83.9402 78.0773 84.1186C78.3023 84.2971 78.4148 84.5499 78.4148 84.8771C78.4148 85.063 78.3698 85.2191 78.2873 85.3604C78.2048 85.4942 78.0773 85.5983 77.9047 85.6727C78.2198 85.7173 78.4598 85.8363 78.6248 86.0147C78.7898 86.1932 78.8724 86.4311 78.8724 86.7211C78.8724 87.1003 78.7448 87.3903 78.4898 87.591C78.2348 87.7918 77.8672 87.8959 77.4022 87.8959H75.947V83.851ZM77.1546 85.5314C77.3872 85.5314 77.5672 85.4793 77.7022 85.3752C77.8297 85.2711 77.8972 85.1224 77.8972 84.9366C77.8972 84.5276 77.6272 84.3194 77.0796 84.3194H76.4571V85.5314H77.1546ZM77.3572 87.4275C78.0172 87.4275 78.3473 87.1821 78.3473 86.6988C78.3473 86.4683 78.2648 86.2898 78.0998 86.1709C77.9347 86.0519 77.7022 85.985 77.4022 85.985H76.4571V87.4275H77.3572Z" fill="#022238"/>
<path d="M80.245 83.851H80.7551V85.8363L82.5478 83.851H83.1854L81.3401 85.8511L83.2229 87.8959H82.5628L80.7551 85.9106V87.8959H80.245V83.851Z" fill="#022238"/>
<path d="M86.0284 83.784H86.0884L88.1137 87.8959H87.5436L87.146 87.0483H84.9783L84.5657 87.8959H84.0031L86.0284 83.784ZM86.9135 86.5947L86.0509 84.7804L85.1958 86.5947H86.9135Z" fill="#022238"/>
<path d="M90.7539 86.5947C90.6189 86.9293 90.4839 87.1895 90.3489 87.3828C90.2139 87.5762 90.0564 87.7175 89.8913 87.7992C89.7188 87.881 89.5238 87.9256 89.2913 87.9256C89.1787 87.9256 89.0887 87.9182 89.0062 87.8959V87.42C89.0512 87.4349 89.1187 87.4349 89.2087 87.4349C89.4413 87.4349 89.6363 87.3605 89.7788 87.2193C89.9288 87.078 90.0789 86.8252 90.2214 86.4683L90.7764 85.1373C90.9115 84.8101 91.0465 84.5499 91.174 84.3566C91.309 84.1632 91.4515 84.0294 91.609 83.9476C91.7666 83.8658 91.9466 83.8212 92.1566 83.8212C92.2016 83.8212 92.2466 83.8212 92.2916 83.8212C92.3366 83.8212 92.3666 83.8286 92.3891 83.8361V84.312C92.3441 84.3045 92.2916 84.2971 92.2391 84.2971C92.0441 84.2971 91.8716 84.3714 91.7291 84.5127C91.5865 84.654 91.444 84.8994 91.3015 85.234L90.7539 86.5724V86.5947Z" fill="#022238"/>
<path d="M94.6545 84.3268H93.4094V83.851H96.4097V84.3268H95.1646V87.8959H94.6545V84.3268Z" fill="#022238"/>
<path d="M98.9225 83.784H98.9825L101.008 87.8959H100.438L100.04 87.0483H97.8723L97.4598 87.8959H96.8972L98.9225 83.784ZM99.8076 86.5947L98.945 84.7804L98.0899 86.5947H99.8076Z" fill="#022238"/>
</g>
<defs>
<clipPath id="clip0_3_240">
<rect width="101" height="88" fill="white"/>
</clipPath>
</defs>
</svg>
